<?xml version="1.0" encoding="utf-8"?>
<!-- Generator: Adobe Illustrator 14.0.0, SVG Export Plug-In . SVG Version: 6.00 Build 43363)  -->
<!DOCTYPE svg PUBLIC "-//W3C//DTD SVG 1.0//EN" "http://www.w3.org/TR/2001/REC-SVG-20010904/DTD/svg10.dtd">
<svg version="1.0" id="Group_1_1_" xmlns="http://www.w3.org/2000/svg" xmlns:xlink="http://www.w3.org/1999/xlink" x="0px" y="0px"
	 width="2534.239px" height="793.62px" viewBox="0 0 2534.239 793.62" enable-background="new 0 0 2534.239 793.62"
	 xml:space="preserve">
<g id="Color_Fill_4">
	<g>
		<path fill-rule="evenodd" clip-rule="evenodd" fill="#FFFFFF" d="M562.229,169.02l-203.535,4.305l-203.535-4.305
			c0,0-133.076,79.562-123.961,277.818C40.104,640.546,179.64,701.48,179.64,701.48s15.683,25.817,63.477,40.078
			c48.445,14.454,113.693,13.396,115.578,13.362c1.885,0.033,67.134,1.092,115.578-13.362
			c47.793-14.261,63.477-40.078,63.477-40.078s139.536-60.935,148.441-254.643C695.306,248.581,562.229,169.02,562.229,169.02z"/>
	</g>
</g>
<g id="Color_Fill_4_1_">
	<g>
		<path fill="#838383" d="M562.229,169.02l-15.03,11.577c0,0,56.97,26.075,93.898,92.974
			c30.833,55.857,46.975,145.953,34.808,202.579c-24.25,112.869-171.688,185.909-311.586,180.764
			c-138.565-5.097-267.773-114.027-262.15-290.677c3.772-118.517,92.99-178.089,92.99-178.089l-40-19.127
			c0,0-133.076,79.562-123.961,277.818C40.104,640.546,179.64,701.48,179.64,701.48s15.683,25.817,63.477,40.078
			c48.445,14.454,113.693,13.396,115.578,13.362c-0.027-0.001-0.045-0.001-0.045-0.001h0.09c0,0-0.018,0-0.045,0.001
			c1.885,0.033,67.134,1.092,115.578-13.362c47.793-14.261,63.477-40.078,63.477-40.078s139.536-60.935,148.441-254.643
			C695.306,248.581,562.229,169.02,562.229,169.02z"/>
	</g>
</g>
<g id="Color_Fill_4_2_">
	<path fill-rule="evenodd" clip-rule="evenodd" fill="#464646" d="M562.235,169.02l-63.36,36.36c0,0,13.813,0.447,30.294-2.79
		c13.245-2.602,29.297-9.112,33.066-8.55c29.174,4.345,133.252,112.112,102.537,300c-26.941,164.8-193.015,215.358-193.015,215.358
		s6.685,0.762,13.616,0.803c6.713,0.04,13.682-0.642,13.682-0.642s-24.884,14.855-58.352,21.941
		c-35.445,7.506-78.611,8.746-82.007,8.833c-3.396-0.087-46.561-1.327-82.006-8.833c-33.468-7.086-58.352-21.941-58.352-21.941
		s6.968,0.682,13.682,0.642c6.932-0.041,13.616-0.803,13.616-0.803S79.563,658.84,52.623,494.04
		c-30.715-187.888,73.363-295.655,102.537-300c3.77-0.562,19.821,5.949,33.067,8.55c16.48,3.237,30.293,2.79,30.293,2.79
		l-63.36-36.36c0,0-133.076,79.562-123.961,277.818C40.104,640.546,179.64,701.48,179.64,701.48s15.683,25.817,63.477,40.078
		c48.491,14.468,113.816,13.394,115.581,13.362c1.765,0.031,67.09,1.105,115.581-13.362c47.794-14.261,63.477-40.078,63.477-40.078
		s139.536-60.935,148.441-254.643C695.312,248.581,562.235,169.02,562.235,169.02z"/>
</g>
<g id="Color_Fill_2">
	<g>
		<path fill="#7D7D7D" d="M585.933,86.11c-4.422-4.791-22.436-17.728-80.489-26.668c-63.883-9.838-146.522-9.504-146.522-9.504
			h-0.183c0,0-82.623-0.337-146.523,9.504c-58.053,8.94-76.067,21.877-80.49,26.668c-6.478,7.019-6.478,54.258-1.35,63.706
			c5.58,10.278,22.307,20.909,22.405,21.055c8.484,12.667,28.396,28.204,61.141,35.675c60.324,13.764,144.816,13.724,144.816,13.724
			h0.183c0,0,84.492,0.04,144.815-13.724c32.746-7.471,52.657-23.008,61.142-35.675c0.098-0.146,16.825-10.777,22.404-21.055
			C592.411,140.368,592.411,93.129,585.933,86.11z"/>
	</g>
</g>
<path fill="#464646" d="M585.933,86.11c-4.422-4.791-22.436-17.728-80.489-26.668c-63.883-9.838-146.522-9.504-146.522-9.504h-0.183
	c0,0-82.623-0.337-146.523,9.504c-58.053,8.94-76.067,21.877-80.49,26.668c-3.627,3.93-5.224,20.473-5.025,35.93
	c3.755-0.005,6.769,1.439,6.769,1.439s1.69,11.067,9.047,19.291c9.89,11.056,10.463,23.289,89.594,32.936
	c56.438,6.88,126.763,8.002,126.763,8.002l0.036-0.016c1.418-0.023,70.78-1.177,126.639-7.986
	c79.132-9.647,79.704-21.879,89.595-32.936c7.356-8.224,9.047-19.291,9.047-19.291s3.014-1.445,6.77-1.439
	C591.157,106.583,589.561,90.041,585.933,86.11z"/>
<path fill="#838383" d="M575.819,109.44c0,0-19.226,11.406-81.619,18.218c-60.066,6.559-134.201,7.521-134.201,7.521h-1.26
	c0,0-74.135-0.963-134.2-7.521c-62.394-6.813-81.62-18.218-81.62-18.218s-1.267,26.849,36.9,40.32
	c41.043,14.486,172.895,18.589,179.217,18.792c0,0,137.83-3.949,179.883-18.792C577.087,136.289,575.819,109.44,575.819,109.44z"/>
<g id="Color_Fill_5">
	<g>
		<path fill="#098442" d="M288.359,469.693c-32.806-71.301-70.754-204.517-140.76-175.641
			c-60.489,24.952-7.552,172.045,37.08,258.422c68.756,133.066,137.414,148.628,175.32,121.292
			C415.048,634.07,320.26,539.026,288.359,469.693z"/>
	</g>
</g>
<g id="Color_Fill_5_1_">
	<g>
		<path fill="#1A6534" d="M376.443,634.231c-2.979-8.362-8.164-7.613-8.164-7.613s-4.076,17.336-13.949,22.404
			c-41.514,21.311-105.897-40.386-154.891-140.818c-89.105-182.659-42.392-204.279-32.94-208.054
			c28.679-11.454,56.162,32.828,73.184,58.368c-23.806-46.064-52.932-80.614-92.083-64.465
			c-60.489,24.952-7.552,172.045,37.08,258.422c68.756,133.066,137.414,148.628,175.32,121.292
			C373.953,663.704,378.279,650.086,376.443,634.231z"/>
	</g>
</g>
<g id="Color_Fill_5_2_">
	<g>
		<path fill="#45B649" d="M559.883,573.831c-2.052-19.946-11.253-39.655-19.121-63.126c-9.383-27.99-17.631-59.811-20.063-82.835
			c-2.536-23.991-6.11-56.111-7.525-86.45c-2.899-62.149-12.678-117.471-61.565-114.274
			c-62.311,4.075-59.396,153.234-45.439,244.964c21.502,141.313,78.818,176.359,121.441,163.229
			C553.331,627.415,563.081,604.925,559.883,573.831z"/>
	</g>
</g>
<g id="Color_Fill_5_3_">
	<g>
		<path fill="#1A6534" d="M530.27,613.711c-43.605,3.853-83.532-70.634-97.23-177.114
			c-24.745-192.365,24.094-197.639,33.793-198.163c29.428-1.592,36.964,48.1,44.549,76.391
			c-5.745-48.291-15.773-90.556-59.773-87.678c-62.311,4.075-59.396,153.234-45.439,244.964
			c21.502,141.313,78.818,176.359,121.441,163.229c15.69-4.834,27.003-15.645,30.188-30.539
			C550.404,609.767,539.374,612.906,530.27,613.711z"/>
	</g>
</g>
<g id="Color_Fill_6">
	<g>
		<path fill="#9CCB3B" d="M484.526,562.013c-1.44-2.79-66.006-72.831-87.998-151.976c-20.569-74.027-24.428-191.814-102.41-186.297
			c-58.386,4.13-54.215,90.232-38.17,169.935c2.871,14.258,4.231,31.912,7.572,45.255c23.43,93.59,43.161,139.003,69.56,175.007
			c7.254,9.894,20.338,27.271,27.356,33.839c3.271,3.06,7.264,5.58,11.276,8.9c8.212,6.795,23.736,16.461,26.166,16.821
			c2.431,0.36,36.08-7.559,38.33-8.638c2.25-1.08,18.626-19.437,18.626-19.437s10.365-9.27,18.284-21.854
			c9.369-14.89,16.356-30.964,16.537-33.483C489.835,587.565,485.966,564.802,484.526,562.013z"/>
	</g>
</g>
<g id="Color_Fill_6_1_">
	<g>
		<path fill-rule="evenodd" clip-rule="evenodd" fill="#098442" d="M484.526,562.013c-1.44-2.79-66.006-72.831-87.998-151.976
			c-20.569-74.027-24.428-191.814-102.41-186.297c-68.832,4.869-50.721,123.663-28.709,211.59
			c14.188,56.673,40.643,132.396,77.12,184.997c6.991,10.082,13.325,19.93,19.557,27.838c1.5,1.905,5.613,5.19,9.626,8.511
			c8.212,6.795,23.736,16.461,26.166,16.821c2.431,0.36,36.08-7.559,38.33-8.638c2.25-1.08,18.626-19.437,18.626-19.437
			s10.365-9.27,18.284-21.854c9.369-14.89,16.356-30.964,16.537-33.483C489.835,587.565,485.966,564.802,484.526,562.013z
			 M446.371,543.624c-7.231,1.746-24.394,4.662-38.822,13.358c-10.608,6.394-17.971,14.055-26.768,24.647
			c-5.459,6.573-4.739,11.21-8.816,9.806c-10.952-3.771-67.123-93.521-85.849-184.905c-32.161-156.945,3.479-172.393,15.127-174.923
			c12.759-2.771,32.761,2.588,51.645,35.047c19.784,34.007,25.139,108.669,40.701,153.721
			c22.728,65.793,43.43,86.908,51.797,104.386C449.931,534.253,452.591,542.122,446.371,543.624z"/>
	</g>
</g>
<g id="Color_Fill_6_2_">
	<g>
		<path fill="#E7EEB6" d="M473.819,561.359c-1.32-1.859-17.88-12-19.68-12.359c-1.8-0.36-26.778-0.828-33.068,1.539
			c-4.523,1.702-9.148,3.808-13.522,6.443c-4.402,2.653-8.245,5.524-11.863,8.733c-2.238,1.984-5.622,7.875-9.188,13.931
			c-4.564,7.751-8.738,14.533-9.158,15.733s-5.879,28.74-5.819,30.3c0.06,1.561,6.84,24.9,7.62,25.8c0.779,0.9,6.66,4.261,9.84,7.08
			c3.18,2.82,7.859,7.021,9.06,7.5c1.2,0.48,9.301-2.34,16.38-3.84c7.08-1.5,12-2.58,13.62-2.82c1.62-0.239,5.7-3.84,12.3-7.02
			c6.601-3.181,12.961-6.21,12.961-6.21l1.534-0.747c0,0,7.828-7,15.075-17.094c1.093-1.521,13.294-37.773,13.114-39.813
			S475.14,563.22,473.819,561.359z"/>
	</g>
</g>
<g id="Group_2_1_">
	<g id="Shape_1">
		<path fill-rule="evenodd" clip-rule="evenodd" fill="#9CCB3B" d="M453.639,572.817c0,0-5.361-3.228-11.312,6.205
			c-5.054,8.01-2.766,16.041-2.766,16.041s9-3.021,13.894-10.732C459.202,575.275,453.639,572.817,453.639,572.817z"/>
	</g>
	<g id="Shape_1_1_">
		<path fill-rule="evenodd" clip-rule="evenodd" fill="#9CCB3B" d="M433.542,580.231c-1.12-9.448-9.065-5.675-9.065-5.675
			s-8.259,3.18-6.778,12.74c1.22,7.881,9.818,9.559,9.818,9.559S434.466,588.021,433.542,580.231z"/>
	</g>
	<g id="Shape_1_2_">
		<path fill-rule="evenodd" clip-rule="evenodd" fill="#9CCB3B" d="M409.855,595.248c-8.724-3.266-13.417,4.943-13.417,4.943
			s-5.314,7.952,3.635,10.78c7.29,2.303,16.912-3.699,16.912-3.699S416.964,597.908,409.855,595.248z"/>
	</g>
	<g id="Shape_1_3_">
		<path fill-rule="evenodd" clip-rule="evenodd" fill="#9CCB3B" d="M398.913,620.141c-10.514,5.169-8.467,11.737-8.467,11.737
			s1.25,6.729,11.383,1.511c8.414-4.334,12.966-13.77,12.966-13.77S407.636,615.854,398.913,620.141z"/>
	</g>
	<g id="Shape_1_4_">
		<path fill-rule="evenodd" clip-rule="evenodd" fill="#9CCB3B" d="M421.941,626.144c0,0-9.524,3.741-14.367,11.535
			c-5.636,9.067,0.923,10.028,0.923,10.028s5.926,1.542,11.381-7.179C424.564,633.035,421.941,626.144,421.941,626.144z"/>
	</g>
	<g id="Shape_1_5_">
		<path fill-rule="evenodd" clip-rule="evenodd" fill="#9CCB3B" d="M441.917,630.923c-0.704-6.358-8.219-7.276-8.219-7.276
			s-6.513,8.299-5.577,14.694c1.058,7.235,7.871,3.212,7.871,3.212S442.714,638.12,441.917,630.923z"/>
	</g>
	<g id="Shape_1_6_">
		<path fill-rule="evenodd" clip-rule="evenodd" fill="#9CCB3B" d="M457.109,610.518c-5.413-2.091-13.743,3.364-13.743,3.364
			s-0.402,8.249,5.159,10.068c6.238,2.041,10.225-4.589,10.225-4.589S463.179,612.862,457.109,610.518z"/>
	</g>
	<g id="Shape_1_7_">
		<path fill-rule="evenodd" clip-rule="evenodd" fill="#9CCB3B" d="M466.347,592.033c0,0-0.067-6.686-8.468-2.598
			c-7.386,3.595-11.97,12.79-11.97,12.79s5.762,3.836,12.923,0.181C466.982,598.247,466.347,592.033,466.347,592.033z"/>
	</g>
</g>
<g>
	<text transform="matrix(1 0 0 1 728.6533 514.4502)" font-family="'Trocchi'" font-size="500">Pickles</text>
	<text transform="matrix(1 0 0 1 718.6533 711.9512)" font-family="'SourceSansPro-Regular'" font-size="195">Living Documentation</text>
</g>
</svg>
